# xmcd
#
# Track frame offsets:
#	150
#	16828
#	35467
#	37927
#	57187
#	84834
#	87698
#	105241
#	124823
#	138853
#	154953
#	165131
#	188953
#
# Disc length: 2788 seconds
# Revision: 1
# Processed by: cddbd v1.5.2PL0 Copyright (c) Steve Scherf et al.
# Submitted via: dBpowerAMP V12.0
#
DISCID=930ae20d
DTITLE=TrailerPark,Northampton,MA - Yard Work
DYEAR=1997
DGENRE=Jazz
TTITLE0=Mumbo Jumbo
TTITLE1=Makeup
TTITLE2=Message From LMurray
TTITLE3=Price Of Love
TTITLE4=Any Day
TTITLE5=Greetings From Keene,NH
TTITLE6=Lately
TTITLE7=Mexico
TTITLE8=Give It Out
TTITLE9=Until You Say I Do
TTITLE10=Alphabet Song,The
TTITLE11=Turn Around
TTITLE12=The Woodman
EXTD=
EXTT0=
EXTT1=
EXTT2=
EXTT3=
EXTT4=
EXTT5=
EXTT6=
EXTT7=
EXTT8=
EXTT9=
EXTT10=
EXTT11=
EXTT12=
PLAYORDER=
